<svg width="555" height="301" viewBox="0 0 555 301" fill="none" xmlns="http://www.w3.org/2000/svg">
<path d="M285.392 73.1976C271.768 73.0087 258.629 81.7652 253.467 94.3585C248.079 106.73 250.867 122.098 260.312 131.749C269.399 141.529 284.37 145.097 296.905 140.532C309.899 136.119 319.479 123.355 319.993 109.627C320.856 96.2824 313.121 82.944 301.164 76.9876C296.307 74.4914 290.853 73.1894 285.392 73.1976ZM268.785 94.1007C276.864 93.8712 284.015 101.398 283.369 109.455C283.182 117.532 275.304 124.285 267.292 123.232C259.237 122.631 252.896 114.428 254.35 106.48C255.296 99.5239 261.76 93.9694 268.785 94.1007ZM282.207 63.4867C281.4 63.1981 279.494 60.5013 277.97 57.4943C276.273 54.1444 271.008 48.0857 264.379 41.8526C251.564 29.8035 248.3 24.836 248.3 17.3794C248.3 6.2215 257.048 0 272.74 0C287.608 0 299.952 7.66968 303.787 19.2887C307.299 29.9305 302.75 45.0348 292.651 56.2691C286.975 62.5822 284.486 64.3021 282.207 63.4867ZM317.176 79.1193C313.926 77.226 314.746 75.2569 323.146 64.7876C327.688 59.1266 333.749 49.6217 337.227 42.7033C343.889 29.4522 347.223 26.1649 355.394 24.7839C369.594 22.3848 382.78 34.118 382.723 49.1001C382.656 66.8246 372.179 73.922 339.155 78.6153C325.157 80.6048 319.932 80.7239 317.176 79.1193ZM202.171 83.2432C188.88 80.8314 182.526 78.2363 177.038 72.9771C172.175 68.3172 172 67.9106 172 61.2414C172 47.7979 182.699 38.0594 197.53 38.0032C206.323 37.9666 210.763 40.4177 220.704 50.781C225.128 55.3933 233.785 62.717 239.943 67.0555C251.819 75.4239 252.942 77.4163 247.303 80.119C237.831 84.659 217.665 86.0547 202.171 83.2432ZM196.625 192.043C183.876 187.497 178.167 168.786 185.774 156.478C189.763 150.023 193.865 148.442 205.215 148.981C230.025 150.161 236.598 149.801 242.737 146.922C245.943 145.419 249.378 144.5 250.37 144.881C253.396 146.042 252.58 153.631 248.566 161.663C238.67 181.467 211.513 197.352 196.625 192.043ZM341.798 197.585C336.14 196.36 331.717 190.288 328.994 180.006C325.651 167.386 322.999 161.435 317.423 154.05C314.925 150.741 312.881 147.252 312.881 146.296C312.881 139.925 340.723 138.929 353.461 144.844C367.754 151.481 374.73 160.326 374.73 171.814C374.73 179.227 372.77 184.042 367.741 188.983C360.678 195.923 350.188 199.401 341.798 197.585ZM271.649 224.719C249.636 220.435 245.446 193.735 264.329 178.078C275.996 168.407 278.748 165.38 282.376 158.243C284.457 154.148 286.889 150.798 287.781 150.798C289.903 150.798 298.632 168.371 300.843 177.096C303.3 186.787 303.09 203.387 300.438 209.212C295.623 219.783 282.528 226.837 271.649 224.719Z" fill="#E6521E"/>
<path d="M535.382 270.584C540.023 261.289 544.742 256.641 549.539 256.641C553.179 256.641 555 258.466 555 262.116C555 264.777 554.366 268.695 553.098 273.871C551.829 279.048 551.195 282.966 551.195 285.627C551.195 287.725 551.713 289.439 552.748 290.769C550.764 292.015 548.806 292.637 546.873 292.637C543.629 292.637 542.007 291.094 542.007 288.006C542.007 285.721 542.352 282.89 543.043 279.513C544.785 271.002 545.657 266.32 545.657 265.468C545.657 264.529 545.363 264.06 544.777 264.06C543.051 264.06 540.411 267.779 536.857 275.215C533.441 282.361 531.732 287.154 531.732 289.593C531.732 290.241 531.879 291.017 532.172 291.921C530.413 292.398 528.713 292.637 527.074 292.637C524.106 292.637 522.622 291.58 522.622 289.465C522.622 288.407 522.838 287.026 523.269 285.32L524.305 281.227C526.737 271.608 527.954 264.82 527.954 260.863C527.954 259.925 527.781 259.038 527.436 258.202C529.731 257.4 531.715 257 533.389 256.999C536.029 256.999 537.349 258.083 537.349 260.249C537.349 261.443 536.693 264.887 535.382 270.584ZM494.36 292.97C490.667 292.97 487.73 291.844 485.547 289.593C483.364 287.341 482.273 284.382 482.273 280.715C482.273 274.899 484.085 269.552 487.708 264.674C491.659 259.319 496.473 256.641 502.15 256.641C505.739 256.641 508.629 257.801 510.821 260.12C512.96 262.372 514.03 265.288 514.03 268.87C514.03 274.601 512.235 279.931 508.646 284.86C504.712 290.266 499.95 292.97 494.36 292.97ZM496.146 287.802C498.855 287.802 500.994 285.124 502.564 279.769C503.72 275.829 504.298 272.051 504.298 268.435C504.298 264.035 502.969 261.835 500.312 261.835C497.517 261.835 495.326 264.504 493.738 269.842C492.582 273.731 492.004 277.517 492.004 281.201C492.004 285.602 493.385 287.802 496.146 287.802ZM462.991 258.303C465.372 257.434 467.537 256.999 469.487 256.999C472.109 256.999 473.421 257.988 473.421 259.966C473.421 260.87 473.257 261.953 472.929 263.216C470.065 274.302 468.633 281.849 468.633 285.857C468.633 287.801 469.15 289.438 470.186 290.769C468.184 292.014 466.243 292.636 464.362 292.636C460.98 292.636 459.289 291.093 459.289 288.006C459.289 285.021 460.031 280.604 461.515 274.753C462.999 268.903 463.741 264.486 463.741 261.501C463.741 260.427 463.491 259.361 462.991 258.303ZM474.663 251.677C472.817 252.547 471.126 252.982 469.59 252.982C467.278 252.982 466.122 252.351 466.122 251.089C466.122 250.663 466.209 250.023 466.381 249.17C466.554 248.317 466.64 247.678 466.64 247.251C466.64 246.961 466.528 246.612 466.303 246.202C468.529 245.401 470.41 245 471.946 245C474.465 245 475.724 245.947 475.724 247.84C475.724 248.676 475.371 249.955 474.663 251.677ZM431.181 267.181H430.016C428.049 267.181 426.117 267.556 424.219 268.307C424.133 267.488 424.09 266.891 424.09 266.516C424.09 264.299 424.935 262.892 426.626 262.294C427.471 261.987 429.343 261.834 432.242 261.834C433.174 257.144 433.64 254.125 433.64 252.778C433.64 251.703 433.39 250.637 432.889 249.58C435.236 248.71 437.401 248.275 439.385 248.275C442.008 248.275 443.319 249.264 443.319 251.243C443.319 252.488 443.026 254.253 442.439 256.538L441.094 261.834H443.941C446.235 261.834 448.729 261.578 451.42 261.067C451.196 265.194 448.789 267.258 444.199 267.258C443.734 267.258 443.035 267.245 442.103 267.219C441.171 267.194 440.473 267.181 440.007 267.181C438.419 274.652 437.626 279.674 437.626 282.25C437.626 284.944 438.626 286.292 440.628 286.292C442.388 286.292 444.476 285.422 446.891 283.682C447.461 284.774 447.745 285.738 447.745 286.573C447.745 288.552 446.434 290.163 443.811 291.408C441.672 292.415 439.48 292.918 437.237 292.918C431.509 292.918 428.645 290.129 428.645 284.552C428.645 280.885 429.49 275.095 431.181 267.181ZM403.618 279.001C398.442 288.313 393.662 292.969 389.28 292.969C384.742 292.969 382.473 289.814 382.473 283.503C382.473 277.687 384.078 271.982 387.287 266.388C391.031 259.89 395.629 256.641 401.082 256.641C403.601 256.641 405.827 257.272 407.759 258.534C408.708 257.494 410.011 256.973 411.667 256.973C413.669 256.973 415.627 257.425 417.543 258.329C416.231 260.956 415.006 265.186 413.867 271.019C412.815 276.511 412.289 280.928 412.289 284.271C412.289 286.71 412.728 288.85 413.608 290.692C412.09 291.989 410.347 292.637 408.38 292.637C404.74 292.637 402.919 290.65 402.919 286.676C402.919 284.629 403.152 282.07 403.618 279.001ZM406.258 266.004C404.257 263.344 402.272 262.013 400.305 262.013C397.838 262.013 395.759 264.742 394.068 270.2C392.722 274.515 392.049 278.293 392.049 281.533C392.049 284.023 392.619 285.268 393.757 285.268C394.965 285.268 397.234 282.42 400.564 276.724C403.014 272.562 404.912 268.989 406.258 266.004ZM350.949 291.92C349.258 292.398 347.619 292.636 346.031 292.636C343.443 292.636 342.149 291.63 342.149 289.617C342.149 288.799 342.434 287.127 343.003 284.603C345.488 273.568 346.73 267.104 346.73 265.211C346.73 264.58 346.515 264.264 346.083 264.264C344.582 264.264 341.959 267.79 338.215 274.843C334.471 281.896 332.599 286.769 332.599 289.464C332.599 290.214 332.746 291.033 333.039 291.92C331.279 292.398 329.666 292.636 328.199 292.636C325.369 292.636 323.954 291.579 323.954 289.464C323.954 288.355 324.161 286.974 324.576 285.32C327.716 272.767 329.286 264.589 329.286 260.786C329.286 259.899 329.105 259.038 328.742 258.202C331.037 257.4 332.961 256.999 334.514 256.999C336.982 256.999 338.215 258.074 338.215 260.223C338.215 261.605 337.965 263.336 337.465 265.416L336.222 270.584C341.589 261.289 346.437 256.641 350.768 256.641C353.873 256.641 355.426 258.475 355.426 262.142C355.426 263.148 355.237 264.555 354.857 266.363C354.443 268.324 354.21 269.732 354.158 270.584C359.559 261.289 364.468 256.641 368.885 256.641C372.043 256.641 373.621 258.356 373.621 261.784C373.621 262.807 373.319 264.777 372.715 267.693C370.697 277.449 369.687 283.41 369.687 285.576C369.687 287.691 370.196 289.422 371.214 290.77C369.247 292.015 367.366 292.637 365.572 292.637C362.501 292.637 360.965 291.094 360.965 288.007C360.965 285.534 361.345 282.455 362.104 278.771C363.795 270.584 364.64 266.065 364.64 265.212C364.64 264.581 364.424 264.265 363.993 264.265C362.509 264.265 359.895 267.791 356.151 274.844C352.407 281.897 350.535 286.77 350.535 289.465C350.535 290.215 350.673 291.033 350.949 291.92ZM304.596 258.304C306.977 257.435 309.142 257 311.092 257C313.715 257 315.026 257.989 315.026 259.967C315.026 260.871 314.862 261.954 314.534 263.216C311.67 274.303 310.238 281.85 310.238 285.858C310.238 287.802 310.755 289.439 311.791 290.77C309.789 292.015 307.848 292.637 305.967 292.637C302.585 292.637 300.895 291.094 300.895 288.007C300.895 285.022 301.637 280.604 303.12 274.754C304.604 268.904 305.346 264.487 305.346 261.502C305.346 260.428 305.096 259.362 304.596 258.304ZM316.268 251.678C314.422 252.548 312.731 252.983 311.196 252.983C308.883 252.983 307.728 252.352 307.728 251.09C307.728 250.663 307.814 250.024 307.986 249.171C308.159 248.318 308.245 247.679 308.245 247.252C308.245 246.962 308.133 246.613 307.909 246.203C310.134 245.402 312.015 245.001 313.551 245.001C316.07 245.001 317.33 245.948 317.33 247.841C317.329 248.676 316.976 249.956 316.268 251.678ZM270.562 270.584C275.204 261.289 279.923 256.641 284.72 256.641C288.36 256.642 290.18 258.466 290.181 262.116C290.181 264.777 289.547 268.696 288.278 273.872C287.01 279.048 286.376 282.967 286.376 285.628C286.376 287.725 286.894 289.44 287.929 290.77C285.945 292.015 283.986 292.638 282.054 292.638C278.81 292.638 277.188 291.094 277.188 288.007C277.188 285.721 277.533 282.89 278.223 279.513C279.966 271.003 280.837 266.321 280.837 265.468C280.837 264.53 280.544 264.061 279.957 264.061C278.232 264.061 275.592 267.779 272.038 275.215C268.621 282.362 266.913 287.154 266.913 289.593C266.913 290.241 267.06 291.017 267.353 291.921C265.593 292.399 263.894 292.637 262.255 292.637C259.287 292.637 257.803 291.58 257.803 289.465C257.803 288.408 258.019 287.026 258.45 285.321L259.485 281.227C261.918 271.608 263.134 264.82 263.134 260.863C263.134 259.925 262.962 259.038 262.617 258.202C264.912 257.401 266.896 257 268.57 257C271.209 257 272.53 258.083 272.53 260.249C272.53 261.443 271.874 264.888 270.562 270.584ZM224.494 277.978C223.873 279.274 222.967 281.236 221.776 283.862C220.655 286.438 220.094 288.595 220.094 290.335C220.094 290.71 220.12 291.051 220.172 291.358C217.653 292.211 215.608 292.637 214.038 292.637C212.33 292.637 211.475 292.006 211.475 290.744C211.475 289.959 211.786 289.013 212.407 287.904C215.582 282.037 220.405 273.117 226.875 261.143C228.1 258.96 230.231 254.995 233.268 249.247L237.305 248.173C238.841 247.763 240.213 247.559 241.42 247.559C243.543 247.559 244.604 249.136 244.604 252.292C244.604 253.264 244.578 254.731 244.526 256.692C244.474 258.653 244.448 260.12 244.448 261.092V275.445C244.448 282.54 245.535 287.554 247.71 290.488C245.139 291.92 242.775 292.637 240.618 292.637C237.667 292.637 236.08 289.72 235.856 283.887L235.623 277.977L224.494 277.978ZM226.539 273.245H235.752L235.701 269.484V266.619C235.701 265.527 235.744 263.822 235.83 261.502C235.899 259.66 235.934 258.227 235.934 257.204V256.385L235.882 253.776C232.828 259.575 229.713 266.064 226.539 273.245ZM169.909 292.97C166.216 292.97 163.279 291.844 161.096 289.593C158.913 287.342 157.822 284.382 157.822 280.715C157.822 274.899 159.634 269.552 163.257 264.674C167.209 259.319 172.022 256.641 177.699 256.641C181.288 256.641 184.178 257.801 186.37 260.121C188.509 262.372 189.579 265.289 189.579 268.87C189.579 274.601 187.784 279.931 184.196 284.86C180.261 290.266 175.499 292.97 169.909 292.97ZM171.695 287.802C174.404 287.802 176.543 285.124 178.113 279.769C179.269 275.829 179.847 272.051 179.847 268.435C179.847 264.035 178.519 261.835 175.861 261.835C173.066 261.835 170.875 264.504 169.287 269.843C168.131 273.731 167.553 277.518 167.553 281.202C167.553 285.602 168.934 287.802 171.695 287.802ZM130.958 267.182H129.793C127.826 267.182 125.894 267.557 123.995 268.307C123.909 267.489 123.866 266.892 123.866 266.517C123.866 264.299 124.712 262.892 126.402 262.295C127.248 261.988 129.12 261.835 132.019 261.835C132.951 257.145 133.416 254.126 133.416 252.778C133.416 251.704 133.166 250.638 132.666 249.581C135.012 248.711 137.178 248.276 139.162 248.276C141.785 248.276 143.096 249.265 143.096 251.244C143.096 252.489 142.803 254.254 142.216 256.539L140.87 261.835H143.717C146.012 261.835 148.505 261.579 151.197 261.068C150.973 265.195 148.566 267.259 143.976 267.259C143.51 267.259 142.811 267.246 141.88 267.22C140.948 267.195 140.249 267.182 139.783 267.182C138.196 274.652 137.402 279.675 137.402 282.251C137.402 284.945 138.403 286.293 140.404 286.293C142.164 286.293 144.252 285.423 146.668 283.683C147.237 284.775 147.522 285.738 147.522 286.574C147.522 288.553 146.21 290.164 143.588 291.409C141.448 292.416 139.257 292.919 137.014 292.919C131.285 292.919 128.421 290.13 128.421 284.553C128.421 280.886 129.267 275.096 130.958 267.182ZM96.5085 292.969C92.816 292.969 89.8784 291.843 87.6959 289.592C85.5132 287.34 84.4219 284.381 84.4219 280.714C84.4219 274.898 86.2336 269.551 89.8569 264.673C93.8083 259.318 98.6221 256.64 104.299 256.64C107.888 256.64 110.778 257.8 112.969 260.12C115.109 262.371 116.179 265.287 116.179 268.869C116.179 274.6 114.384 279.93 110.795 284.859C106.861 290.265 102.099 292.969 96.5085 292.969ZM98.2943 287.801C101.003 287.801 103.143 285.123 104.713 279.768C105.869 275.828 106.447 272.05 106.447 268.434C106.447 264.034 105.118 261.834 102.461 261.834C99.6659 261.834 97.4746 264.503 95.8871 269.841C94.731 273.73 94.153 277.516 94.153 281.2C94.153 285.601 95.5336 287.801 98.2943 287.801ZM47.1307 259.606C49.5462 257.866 52.0136 256.996 54.5329 256.996C57.0176 256.996 58.4668 258.975 58.8812 262.932C59.3125 267.435 60.0027 273.745 60.9517 281.864L67.0597 271.426C69.8032 266.736 71.1749 263.043 71.1749 260.348C71.1749 259.649 71.011 258.651 70.6831 257.355C76.1182 257.526 78.8358 258.805 78.8358 261.192C78.8358 263.682 76.679 268.245 72.3654 274.879C68.1552 281.395 63.6175 287.228 58.7516 292.378C53.3338 298.126 49.3049 301 46.6648 301C43.8524 301 42.446 300.053 42.446 298.16C42.446 296.779 43.2225 295.039 44.7754 292.941C45.7761 293.658 46.8028 294.016 47.8552 294.016C50.4434 294.016 52.6348 292.378 54.4292 289.104C51.7893 272.492 49.3565 262.66 47.1307 259.606ZM9.93853 291.073C7.59193 292.114 5.48695 292.634 3.62337 292.634C1.20764 292.634 0 291.815 0 290.178C-4.41706e-06 289.086 0.232937 287.671 0.698811 285.931C4.85709 270.41 6.93623 259.69 6.93623 253.774C6.93622 252.58 6.59976 251.463 5.92686 250.422C8.75647 248.99 11.3619 248.273 13.7432 248.273C15.9345 248.273 17.0302 249.066 17.0302 250.652C17.0302 250.652 16.5643 252.972 15.6326 257.611L13.381 268.842C23.9578 255.113 31.5758 248.248 36.2352 248.248C38.6334 248.248 39.8327 249.365 39.8327 251.599C39.8326 251.872 39.7032 252.929 39.4445 254.771L38.0728 254.72C38.0727 254.72 37.9347 254.72 37.6586 254.72C35.4846 254.72 33.2071 255.564 30.8258 257.253C29.014 258.549 27.0211 260.425 24.8472 262.881C23.2425 264.809 21.638 266.727 20.0332 268.638C25.4683 280.218 30.3339 286.009 34.6305 286.009H34.9152C34.1215 290.665 32.0164 292.993 28.6 292.993C25.4252 292.993 22.1124 290.17 18.6615 284.525C16.2977 280.687 14.3307 276.483 12.7604 271.912C10.7244 281.293 9.70643 286.981 9.70643 288.976C9.70642 289.505 9.78323 290.204 9.93853 291.073Z" fill="#E6521E"/>
</svg>
